<svg xmlns="http://www.w3.org/2000/svg" xmlns:xlink="http://www.w3.org/1999/xlink" version="1.1" x="0px" y="0px" viewBox="0 0 120 120" enable-background="new 0 0 128 128" xml:space="preserve"><g><path fill-rule="evenodd" clip-rule="evenodd" d="M49.933,70.805l4.598,4.207l1.191,1.092l4.6,4.207l33.422-20.118l2.713-8.781   l-9.881-9.038l-1.193-1.091l-9.881-9.036l-8.505,3.482L49.933,70.805z M74.872,35.786l18.113,16.568l-1.803,5.836L60.698,76.539   l-7.045-6.443L69.22,38.1L74.872,35.786z"/><path fill-rule="evenodd" clip-rule="evenodd" d="M74.706,52.616c-5.732-2.643-9.152-0.043-9.152-0.043l0.002-0.001l-8.18,16.813   l3.699,3.385l27.549-16.583l0.723-2.347C86.319,54.795,79.583,54.867,74.706,52.616z"/><rect x="42.991" y="75.61" transform="matrix(-0.7378 -0.675 0.675 -0.7378 37.117 172.3174)" fill-rule="evenodd" clip-rule="evenodd" width="18.067" height="6.68"/></g><circle fill-rule="evenodd" clip-rule="evenodd" cx="51.202" cy="87.933" r="1.72"/><circle fill-rule="evenodd" clip-rule="evenodd" cx="44.327" cy="89.916" r="1.72"/><path fill-rule="evenodd" clip-rule="evenodd" d="M45.909,83.088c0.641-0.699,1.729-0.746,2.428-0.105  c0.701,0.641,0.75,1.727,0.109,2.43c-0.642,0.701-1.729,0.75-2.431,0.109C45.313,84.879,45.265,83.791,45.909,83.088z"/><path fill-rule="evenodd" clip-rule="evenodd" d="M41.3,80.15c0.641-0.699,1.729-0.748,2.428-0.105  c0.703,0.639,0.75,1.729,0.109,2.43c-0.642,0.701-1.729,0.748-2.431,0.109C40.706,81.941,40.657,80.854,41.3,80.15z"/><circle fill-rule="evenodd" clip-rule="evenodd" cx="37.771" cy="89.105" r="1.72"/><path fill-rule="evenodd" clip-rule="evenodd" d="M43.229,94.1c0.645-0.703,1.732-0.748,2.431-0.107  c0.702,0.641,0.751,1.729,0.108,2.43c-0.641,0.703-1.729,0.75-2.43,0.109S42.589,94.803,43.229,94.1z"/></svg>